<?xml version="1.0" encoding="utf-8"?>
<!-- Generator: Adobe Illustrator 23.1.1, SVG Export Plug-In . SVG Version: 6.00 Build 0)  -->
<svg version="1.1" id="Laag_1" xmlns="http://www.w3.org/2000/svg" xmlns:xlink="http://www.w3.org/1999/xlink" x="0px" y="0px"
	 viewBox="0 0 170.7 72.2" style="enable-background:new 0 0 170.7 72.2;" xml:space="preserve">
<style type="text/css">
	.st0{fill:#009FE3;}
	.st1{fill:url(#SVGID_1_);}
	.st2{fill:url(#SVGID_2_);}
	.st3{fill:#FFFFFF;}
</style>
<title>iCOV</title>
<g>
	<g>
		<circle class="st0" cx="91.7" cy="34.3" r="26.7"/>
		
			<linearGradient id="SVGID_1_" gradientUnits="userSpaceOnUse" x1="84.7696" y1="13.2392" x2="98.5904" y2="64.792" gradientTransform="matrix(1 0 0 -1 0 73.2756)">
			<stop  offset="0" style="stop-color:#737373"/>
			<stop  offset="1" style="stop-color:#FFFFFF;stop-opacity:0"/>
		</linearGradient>
		<circle class="st1" cx="91.7" cy="34.3" r="26.7"/>
		
			<linearGradient id="SVGID_2_" gradientUnits="userSpaceOnUse" x1="91.68" y1="65.2556" x2="91.68" y2="40.3156" gradientTransform="matrix(1 0 0 -1 0 73.2756)">
			<stop  offset="0" style="stop-color:#FFFFFF;stop-opacity:0.5"/>
			<stop  offset="1" style="stop-color:#FFFFFF;stop-opacity:0"/>
		</linearGradient>
		<ellipse class="st2" cx="91.7" cy="20.5" rx="18" ry="12.5"/>
		<path class="st3" d="M95.7,12.6c-1.5-1.9-3.2-3.6-5.1-5.1c-0.7,0-1.4,0.1-2.1,0.2C89,8,89.4,8.3,89.8,8.6c1.8,1.5,3.4,3.1,4.9,4.9
			c-0.2,0.3-0.3,0.6-0.4,0.9c-0.5,0.1-1,0.2-1.5,0.3c-0.1-0.1-0.2-0.2-0.3-0.3c-0.6-0.5-1.3-0.6-2-0.4c-1.4-2-3.1-3.9-5-5.5
			l-0.3-0.2L84,8.6c0.3,0.2,0.6,0.4,0.9,0.7c1.8,1.5,3.4,3.2,4.7,5.1c-0.1,0.1-0.2,0.2-0.3,0.3c-0.3,0.3-0.4,0.7-0.5,1.1
			c-6.5,2.2-12.4,6-17,11.1c-0.7-0.3-1.4-0.2-2,0.2c-1-1-1.9-2.1-2.7-3.3c-0.2,0.4-0.3,0.8-0.5,1.2c0.7,1,1.5,2,2.4,2.9
			c-0.4,0.7-0.4,1.6,0,2.4c-1.5,2-2.9,4.2-4,6.5c0.1,1,0.2,1.9,0.4,2.9c1.3-3,2.9-5.8,4.8-8.4c0.7,0.2,1.5,0.1,2.1-0.4
			c5.7,4.3,12.9,6.1,20,5.3c0.1,0.4,0.4,0.7,0.7,1c-0.9,2.8-2.2,5.4-3.9,7.7c-0.3,0.4-0.6,0.8-0.9,1.1c-3.5,4.3-8.3,7.4-13.7,8.8
			l0.2,0.2c0.3,0.2,0.5,0.4,0.8,0.6c5.2-1.4,9.8-4.3,13.3-8.4l0.4-0.5c2.2-2.7,3.9-5.8,5-9.1c1.2,0.2,2.4-0.6,2.7-1.8
			c0-0.2,0.1-0.4,0-0.6c1.5-0.5,3.1-1,4.5-1.8c0.3,0.4,0.8,0.7,1.3,0.9c0.2,5.2-0.7,10.4-2.7,15.3c-1.2,0-2.2,1-2.2,2.2
			c-4,1.6-7.5,4.1-10.2,7.4c-0.3,0.4-0.7,0.8-1,1.2l1.1,0.2c0.2-0.3,0.4-0.5,0.6-0.8c2.6-3.1,5.9-5.5,9.6-7.1
			c0.1,0.1,0.1,0.3,0.2,0.4c-1.1,1.9-2.3,3.7-3.7,5.4c-0.2,0.2-0.4,0.4-0.5,0.6c-0.5,0.6-1.1,1.3-1.7,1.9c0.7,0,1.4,0,2.1-0.1
			c0.4-0.4,0.7-0.8,1-1.2l0.2-0.2c1.4-1.7,2.6-3.5,3.7-5.4c1.2,0.4,2.5-0.3,2.9-1.4c0.1-0.3,0.1-0.7,0.1-1.1c3.3-0.7,6.7-0.7,9.9,0
			l0.1-0.1c0.2-0.2,0.4-0.5,0.6-0.7c-3.6-0.8-7.4-0.8-11,0c-0.1-0.2-0.3-0.3-0.4-0.5l-0.2-0.1c2.1-5,3-10.4,2.7-15.8
			c1.1-0.5,1.7-1.8,1.2-3c0,0,0,0,0,0c1.3-0.9,2.5-1.9,3.6-3.1c0.5-0.6,1.1-1.1,1.6-1.8c1.6-1.9,2.9-4.1,3.9-6.3
			c-0.2-0.4-0.5-0.7-0.7-1c-1.5,3.5-3.7,6.7-6.5,9.3c-0.8,0.8-1.7,1.5-2.6,2.1c-0.3-0.2-0.6-0.4-1-0.4c0-0.3-0.1-0.5-0.1-0.8
			c-0.7-4.4-2.2-8.5-4.5-12.4l-0.4-0.7c0.2-0.2,0.3-0.5,0.4-0.8c4.3-0.4,8.7,0,12.9,1c-0.6-0.7-1.3-1.4-2-2c-3.6-0.7-7.3-0.9-11-0.5
			C98,12.8,96.8,12.3,95.7,12.6z M91.8,18.3c2.1,4.6,2.9,9.7,2.2,14.8c-0.9,0.2-1.7,1-1.8,1.9c-6.8,0.9-13.7-0.9-19.2-5
			c0.3-0.6,0.3-1.4,0-2c4.4-4.8,10-8.4,16.1-10.6c0.1,0.2,0.3,0.4,0.5,0.6C90.2,18.5,91,18.6,91.8,18.3L91.8,18.3z M97.1,17
			c0.3,0.5,0.6,0.9,0.9,1.4c0.6,1,1.1,2,1.5,3c1.2,2.6,2,5.4,2.5,8.2L102,30c-0.3,0.1-0.6,0.3-0.8,0.6c-0.4,0.5-0.6,1.2-0.5,1.8
			c-1.4,0.7-2.9,1.3-4.4,1.7c-0.1-0.2-0.2-0.3-0.4-0.4c0,0-0.1-0.1-0.1-0.1c-0.3-0.2-0.6-0.4-0.9-0.4c0.7-5.2-0.1-10.6-2.4-15.4
			l0.1-0.1c0.3-0.4,0.5-0.9,0.5-1.4c0.4-0.1,0.8-0.2,1.2-0.3c0.1,0.2,0.3,0.5,0.5,0.6C95.6,17.1,96.4,17.2,97.1,17L97.1,17z"/>
		<path class="st3" d="M0,26.2C0,23.9,1.9,22,4.2,22c2.3,0,4.2,1.9,4.2,4.2c0,2.3-1.9,4.2-4.2,4.2S0,28.5,0,26.2
			C0,26.2,0,26.2,0,26.2z M0.7,60.2V33.3h7.1v26.9L0.7,60.2z M13,34.3c0-16,12-26.7,27.6-26.7c11.3,0,17.9,6.1,21.6,12.6l-9.4,4.6
			c-2.4-4.5-7-7.4-12.1-7.5c-9.5,0-16.3,7.2-16.3,17s6.8,17,16.3,17c5.1-0.1,9.7-3,12.1-7.5l9.5,4.6c-3.6,6.4-10.2,12.7-21.6,12.7
			C25,61.1,13,50.2,13,34.3L13,34.3z M137,60.1L117.1,8.4h12.5l14.4,39.7l14.4-39.7h12.5l-19.9,51.7H137z"/>
	</g>
</g>
</svg>
