<svg xmlns="http://www.w3.org/2000/svg" xmlns:xlink="http://www.w3.org/1999/xlink" viewBox="0 0 170.74 72.16"><defs><style>.cls-1{isolation:isolate}.cls-2{fill:#009fe3}.cls-3{mix-blend-mode:multiply;fill:url(#linear-gradient)}.cls-4{fill:url(#linear-gradient-2)}.cls-5{fill:url(#linear-gradient-3)}.cls-6{fill:url(#linear-gradient-4)}.cls-7{fill:#fff}.cls-8{fill:#1d1d1b}</style><linearGradient id="linear-gradient" x1="84.77" y1="60.03" x2="98.59" y2="8.48" gradientUnits="userSpaceOnUse"><stop offset="0" stop-color="#737373"/><stop offset="1" stop-color="#fff" stop-opacity="0"/></linearGradient><linearGradient id="linear-gradient-2" x1="67.45" x2="67.45" y2="72.16" gradientUnits="userSpaceOnUse"><stop offset="0" stop-color="#fff" stop-opacity=".5"/><stop offset="1" stop-color="#fff" stop-opacity="0"/></linearGradient><linearGradient id="linear-gradient-3" x1="68.63" y1="3.27" x2="68.63" y2="55.75" xlink:href="#linear-gradient-2"/><linearGradient id="linear-gradient-4" x1="91.68" y1="8.02" x2="91.68" y2="32.96" xlink:href="#linear-gradient-2"/></defs><title>iCOV</title><g class="cls-1"><g id="Laag_1" data-name="Laag 1"><circle class="cls-2" cx="91.68" cy="34.26" r="26.68"/><circle class="cls-3" cx="91.68" cy="34.26" r="26.68"/><circle class="cls-4" cx="67.45" cy="36.08" r="36.08"/><circle class="cls-5" cx="68.63" cy="29.51" r="26.24"/><ellipse class="cls-6" cx="91.68" cy="20.49" rx="17.99" ry="12.47"/><path class="cls-7" d="M285 142a36.89 36.89 0 0 0-5.07-5.12c-.69 0-1.39.08-2.08.16.39.3.79.6 1.17.92a35.57 35.57 0 0 1 4.85 4.89 2.25 2.25 0 0 0-.37.88c-.5.1-1 .21-1.49.32a2 2 0 0 0-.27-.27 2.27 2.27 0 0 0-2-.45 26.94 26.94 0 0 0-5-5.47l-.27-.21-1.25.34c.29.22.57.44.85.67a26 26 0 0 1 4.73 5.14 2.36 2.36 0 0 0-.29.29 2.24 2.24 0 0 0-.48 1.09 40.77 40.77 0 0 0-17 11.07 2.26 2.26 0 0 0-2.05.19 26.86 26.86 0 0 1-2.69-3.27c-.17.39-.32.79-.47 1.18a27.37 27.37 0 0 0 2.42 2.85 2.26 2.26 0 0 0 0 2.36 40.92 40.92 0 0 0-4 6.52 26.62 26.62 0 0 0 .43 2.86 39.33 39.33 0 0 1 4.81-8.41 2.28 2.28 0 0 0 2.06-.38 27.66 27.66 0 0 0 19.95 5.26 2.22 2.22 0 0 0 .69 1 25.85 25.85 0 0 1-3.91 7.71c-.28.38-.57.75-.88 1.12a25.89 25.89 0 0 1-13.72 8.76l.21.19c.26.21.52.42.79.62a26.88 26.88 0 0 0 13.27-8.35l.4-.46a26.93 26.93 0 0 0 4.95-9.08 2.26 2.26 0 0 0 2.69-2.37 27.58 27.58 0 0 0 4.5-1.76 2.15 2.15 0 0 0 1.31.85 35.4 35.4 0 0 1-2.68 15.28 2.24 2.24 0 0 0-2.17 2.22 25.63 25.63 0 0 0-10.21 7.44c-.34.41-.66.83-1 1.25l1.08.19c.21-.27.42-.54.64-.81a24.66 24.66 0 0 1 9.65-7.08 2.25 2.25 0 0 0 .22.39 35.33 35.33 0 0 1-3.66 5.36c-.17.21-.35.4-.52.6-.55.64-1.12 1.26-1.71 1.85.69 0 1.39 0 2.08-.12.36-.39.7-.79 1-1.2l.2-.23a37.07 37.07 0 0 0 3.72-5.42 2.26 2.26 0 0 0 2.93-2.53 24.8 24.8 0 0 1 9.93 0l.11-.13c.2-.24.38-.48.57-.72a25.78 25.78 0 0 0-11 0 2.23 2.23 0 0 0-.41-.46l-.18-.12a36.84 36.84 0 0 0 2.72-15.8 2.25 2.25 0 0 0 1.16-3 27.81 27.81 0 0 0 3.57-3.06c.55-.56 1.09-1.15 1.6-1.77a27.62 27.62 0 0 0 3.94-6.34c-.22-.35-.46-.7-.7-1a26.41 26.41 0 0 1-6.48 9.26 27.06 27.06 0 0 1-2.6 2.13 2.23 2.23 0 0 0-1-.43c0-.26-.08-.52-.13-.78a36.9 36.9 0 0 0-4.46-12.35l-.43-.69a2.29 2.29 0 0 0 .39-.81 39.63 39.63 0 0 1 12.88 1 26.41 26.41 0 0 0-2.05-2 41.25 41.25 0 0 0-11-.54A2.26 2.26 0 0 0 285 142zm-3.95 5.66a26.18 26.18 0 0 1 2.18 14.77 2.24 2.24 0 0 0-1.79 1.92 26.6 26.6 0 0 1-19.17-5 2.27 2.27 0 0 0 0-2 39.17 39.17 0 0 1 16.12-10.56 2.29 2.29 0 0 0 .48.56 2.26 2.26 0 0 0 2.19.35zm5.32-1.32q.45.71.86 1.43.83 1.47 1.51 3a35.54 35.54 0 0 1 2.51 8.17l.06.39a2.2 2.2 0 0 0-.78.6 2.26 2.26 0 0 0-.48 1.83 26.48 26.48 0 0 1-4.41 1.72 2.29 2.29 0 0 0-.35-.44s-.09-.1-.15-.15a2.24 2.24 0 0 0-.87-.44 27.23 27.23 0 0 0-2.35-15.36l.08-.09a2.25 2.25 0 0 0 .51-1.44c.4-.09.8-.18 1.2-.26a2.31 2.31 0 0 0 .52.63 2.28 2.28 0 0 0 2.15.45z" transform="translate(-189.27 -129.36)"/><path class="cls-8" d="M189.27 155.54a4.2 4.2 0 0 1 8.4 0 4.2 4.2 0 1 1-8.4 0zm.67 34v-26.88H197v26.85zm12.31-25.85c0-16 12-26.75 27.61-26.75 11.32 0 17.91 6.13 21.56 12.64l-9.42 4.65a14 14 0 0 0-12.1-7.52c-9.46 0-16.28 7.21-16.28 17s6.82 17 16.28 17a14 14 0 0 0 12.1-7.52l9.46 4.57c-3.64 6.44-10.24 12.72-21.56 12.72-15.63-.04-27.65-10.89-27.65-26.79zm124.02 25.82l-19.93-51.72h12.48l14.35 39.7 14.35-39.7H360l-19.93 51.72z" transform="translate(-189.27 -129.36)"/></g></g></svg>